<?xml version="1.0" encoding="UTF-8" standalone="no"?>
<svg
   xmlns:dc="http://purl.org/dc/elements/1.1/"
   xmlns:cc="http://creativecommons.org/ns#"
   xmlns:rdf="http://www.w3.org/1999/02/22-rdf-syntax-ns#"
   xmlns:svg="http://www.w3.org/2000/svg"
   xmlns="http://www.w3.org/2000/svg"
   xmlns:sodipodi="http://sodipodi.sourceforge.net/DTD/sodipodi-0.dtd"
   xmlns:inkscape="http://www.inkscape.org/namespaces/inkscape"
   version="1.1"
   id="Capa_1"
   x="0px"
   y="0px"
   viewBox="0 0 512 512"
   style="enable-background:new 0 0 512 512;"
   xml:space="preserve"
   sodipodi:docname="002-happy.svg"
   inkscape:version="1.0.1 (3bc2e813f5, 2020-09-07)"><metadata
   id="metadata115"><rdf:RDF><cc:Work
       rdf:about=""><dc:format>image/svg+xml</dc:format><dc:type
         rdf:resource="http://purl.org/dc/dcmitype/StillImage" /><dc:title></dc:title></cc:Work></rdf:RDF></metadata><defs
   id="defs113" /><sodipodi:namedview
   pagecolor="#ffffff"
   bordercolor="#666666"
   borderopacity="1"
   objecttolerance="10"
   gridtolerance="10"
   guidetolerance="10"
   inkscape:pageopacity="0"
   inkscape:pageshadow="2"
   inkscape:window-width="1366"
   inkscape:window-height="705"
   id="namedview111"
   showgrid="false"
   inkscape:zoom="1.0507812"
   inkscape:cx="256"
   inkscape:cy="256"
   inkscape:window-x="-8"
   inkscape:window-y="-8"
   inkscape:window-maximized="1"
   inkscape:current-layer="Capa_1" />
<g
   id="g6">
	<g
   id="g4">
		<path
   d="M351.105,52.896C316.995,18.785,271.643,0,223.403,0C123.822,0,42.808,81.015,42.808,180.596v12.507L8.287,334.016    c-0.73,2.983-0.05,6.136,1.846,8.552s4.796,3.827,7.867,3.827h44v13.419c0,40.81,33.201,74.012,74.012,74.012h36.927    c9.592,0,17.395,7.803,17.395,17.395V502c0,5.523,4.478,10,10,10c5.522,0,10-4.477,10-10v-50.779    c-0.001-20.62-16.776-37.395-37.396-37.395h-36.927c-29.782,0-54.012-24.229-54.012-54.012v-23.419    c0-2.652-1.054-5.196-2.929-7.071c-1.876-1.875-4.419-2.929-7.071-2.929H30.744l31.775-129.706    c0.19-0.779,0.287-1.578,0.287-2.379v-13.714C62.808,92.043,134.851,20,223.404,20c42.896,0,83.226,16.705,113.558,47.038    c3.906,3.905,10.236,3.906,14.143,0C355.01,63.133,355.01,56.801,351.105,52.896z"
   id="path2" />
	</g>
</g>
<g
   id="g12">
	<g
   id="g10">
		<path
   d="M104.729,189.11c-1.859-1.86-4.43-2.93-7.069-2.93c-2.63,0-5.21,1.07-7.07,2.93c-1.86,1.87-2.93,4.44-2.93,7.07    s1.069,5.21,2.93,7.08c1.86,1.86,4.44,2.92,7.07,2.92c2.64,0,5.21-1.06,7.069-2.92c1.86-1.87,2.931-4.44,2.931-7.08    C107.66,193.55,106.59,190.98,104.729,189.11z"
   id="path8" />
	</g>
</g>







<g
   id="g60">
	<g
   id="g58">
		<path
   d="M401.069,407.73c-1.859-1.86-4.439-2.93-7.069-2.93s-5.21,1.07-7.07,2.93c-1.86,1.86-2.93,4.44-2.93,7.07    c0,2.64,1.069,5.21,2.93,7.07c1.86,1.86,4.44,2.93,7.07,2.93s5.21-1.07,7.069-2.93c1.86-1.86,2.931-4.43,2.931-7.07    C404,412.17,402.93,409.59,401.069,407.73z"
   id="path56" />
	</g>
</g>
<g
   id="g66">
	<g
   id="g64">
		<path
   d="M394,444.5c-5.522,0-10,4.477-10,10V502c0,5.523,4.478,10,10,10c5.522,0,10-4.477,10-10v-47.5    C404,448.977,399.522,444.5,394,444.5z"
   id="path62" />
	</g>
</g>
<g
   id="g72">
	<g
   id="g70">
		<path
   d="M223.403,44.854l-0.597,0.001c-5.523,0.014-9.988,4.503-9.975,10.026c0.015,5.514,4.488,9.974,9.999,9.974    c0.009,0,0.019,0,0.026,0l0.546-0.001c5.522,0,10-4.477,10-10S228.926,44.854,223.403,44.854z"
   id="path68" />
	</g>
</g>
<g
   id="g78">
	<g
   id="g76">
		<path
   d="M194.388,57.806c-1.691-5.255-7.322-8.148-12.581-6.457c-27.271,8.771-51.579,26.442-68.448,49.76    c-3.237,4.475-2.234,10.726,2.24,13.963c1.771,1.282,3.821,1.899,5.854,1.899c3.099,0,6.154-1.437,8.109-4.14    c14.393-19.894,35.121-34.967,58.368-42.443C193.188,68.697,196.079,63.064,194.388,57.806z"
   id="path74" />
	</g>
</g>
<g
   id="g80">
</g>
<g
   id="g82">
</g>
<g
   id="g84">
</g>
<g
   id="g86">
</g>
<g
   id="g88">
</g>
<g
   id="g90">
</g>
<g
   id="g92">
</g>
<g
   id="g94">
</g>
<g
   id="g96">
</g>
<g
   id="g98">
</g>
<g
   id="g100">
</g>
<g
   id="g102">
</g>
<g
   id="g104">
</g>
<g
   id="g106">
</g>
<g
   id="g108">
</g>
</svg>
